<svg id="Capa_1" enable-background="new 0 0 512 512" height="512" viewBox="0 0 512 512" width="512" xmlns="http://www.w3.org/2000/svg"><g><g><path d="m474 468.75h-93.788c-16.568 0-30-13.431-30-30v-365.5c0-16.568 13.432-30 30-30h93.788c16.569 0 30 13.432 30 30v365.5c0 16.569-13.431 30-30 30z" fill="#434d59"/><path d="m474 450.75h-93.788c-16.568 0-30-13.431-30-30v18c0 16.569 13.432 30 30 30h93.788c16.569 0 30-13.431 30-30v-18c0 16.569-13.431 30-30 30z" fill="#3b434d"/><path d="m287 411h-248c-17.121 0-31-13.879-31-31v-248c0-17.121 13.879-31 31-31h248c17.121 0 31 13.879 31 31v248c0 17.121-13.879 31-31 31z" fill="#eceaec"/><path d="m287 393h-248c-17.121 0-31-13.879-31-31v18c0 17.121 13.879 31 31 31h248c17.121 0 31-13.879 31-31v-18c0 17.121-13.879 31-31 31z" fill="#dad8db"/><ellipse cx="427.106" cy="291.176" fill="#a4ccff" rx="30.356" ry="30.356" transform="matrix(.982 -.188 .188 .982 -47.141 85.524)"/><path d="m427.106 303.532c-13.631 0-25.164-8.985-28.999-21.356-.882 2.844-1.357 5.866-1.357 9 0 16.765 13.591 30.356 30.356 30.356s30.356-13.591 30.356-30.356c0-3.134-.475-6.156-1.357-9-3.835 12.37-15.368 21.356-28.999 21.356z" fill="#8bb3ea"/></g><g><path d="m318.121 203.932c-4.151 0-7.515 3.364-7.515 7.515v168.796c0 12.983-10.563 23.546-23.546 23.546h-248.485c-12.983 0-23.546-10.563-23.546-23.546v-52.033c0-4.15-3.365-7.515-7.515-7.515s-7.515 3.365-7.515 7.515v52.032c0 21.271 17.305 38.575 38.575 38.575h248.485c21.27 0 38.575-17.305 38.575-38.575v-168.795c.002-4.151-3.362-7.515-7.513-7.515z"/><path d="m287.061 93.182h-248.486c-21.27 0-38.575 17.305-38.575 38.575v166.394c0 4.15 3.364 7.515 7.515 7.515 4.15 0 7.515-3.364 7.515-7.515v-166.394c0-12.983 10.563-23.546 23.546-23.546h248.485c12.983 0 23.546 10.563 23.546 23.546v49.631c0 4.15 3.364 7.515 7.515 7.515s7.515-3.365 7.515-7.515v-49.631c-.001-21.27-17.306-38.575-38.576-38.575z"/><path d="m504.485 283.73c4.151 0 7.515-3.364 7.515-7.515v-203.323c0-20.718-16.855-37.573-37.573-37.573h-93.971c-20.718 0-37.574 16.855-37.574 37.573v366.215c0 20.718 16.855 37.573 37.574 37.573h93.971c20.718 0 37.573-16.855 37.573-37.573v-132.833c0-4.15-3.364-7.515-7.515-7.515s-7.515 3.365-7.515 7.515v132.834c0 12.431-10.113 22.544-22.544 22.544h-93.971c-12.431 0-22.544-10.113-22.544-22.544v-366.216c0-12.431 10.114-22.544 22.544-22.544h93.971c12.431 0 22.544 10.113 22.544 22.544v203.323c.001 4.151 3.365 7.515 7.515 7.515z"/><path d="m383.876 93.303h11.231c4.151 0 7.515-3.365 7.515-7.515s-3.364-7.515-7.515-7.515h-11.231c-4.151 0-7.515 3.364-7.515 7.515s3.364 7.515 7.515 7.515z"/><path d="m471.006 78.274h-11.231c-4.151 0-7.515 3.364-7.515 7.515s3.364 7.515 7.515 7.515h11.231c4.151 0 7.515-3.365 7.515-7.515s-3.365-7.515-7.515-7.515z"/><path d="m383.876 145.41h11.231c4.151 0 7.515-3.365 7.515-7.515s-3.364-7.515-7.515-7.515h-11.231c-4.151 0-7.515 3.365-7.515 7.515s3.364 7.515 7.515 7.515z"/><path d="m421.825 145.41h11.232c4.151 0 7.515-3.365 7.515-7.515s-3.364-7.515-7.515-7.515h-11.232c-4.151 0-7.515 3.365-7.515 7.515s3.364 7.515 7.515 7.515z"/><path d="m471.006 130.38h-11.231c-4.151 0-7.515 3.365-7.515 7.515s3.364 7.515 7.515 7.515h11.231c4.151 0 7.515-3.365 7.515-7.515s-3.365-7.515-7.515-7.515z"/><path d="m383.876 174.671h11.231c4.151 0 7.515-3.364 7.515-7.515 0-4.15-3.364-7.515-7.515-7.515h-11.231c-4.151 0-7.515 3.365-7.515 7.515s3.364 7.515 7.515 7.515z"/><path d="m421.825 174.671h11.232c4.151 0 7.515-3.364 7.515-7.515 0-4.15-3.364-7.515-7.515-7.515h-11.232c-4.151 0-7.515 3.365-7.515 7.515s3.364 7.515 7.515 7.515z"/><path d="m471.006 159.641h-11.231c-4.151 0-7.515 3.365-7.515 7.515s3.364 7.515 7.515 7.515h11.231c4.151 0 7.515-3.364 7.515-7.515 0-4.15-3.365-7.515-7.515-7.515z"/><path d="m395.107 343.487h-11.231c-4.151 0-7.515 3.364-7.515 7.515 0 4.15 3.364 7.515 7.515 7.515h11.231c4.151 0 7.515-3.365 7.515-7.515-.001-4.15-3.365-7.515-7.515-7.515z"/><path d="m471.006 343.487h-11.231c-4.151 0-7.515 3.364-7.515 7.515 0 4.15 3.364 7.515 7.515 7.515h11.231c4.151 0 7.515-3.365 7.515-7.515s-3.365-7.515-7.515-7.515z"/><path d="m395.107 378.558h-11.231c-4.151 0-7.515 3.365-7.515 7.515s3.364 7.515 7.515 7.515h11.231c4.151 0 7.515-3.365 7.515-7.515-.001-4.151-3.365-7.515-7.515-7.515z"/><path d="m433.057 378.558h-11.232c-4.151 0-7.515 3.365-7.515 7.515s3.364 7.515 7.515 7.515h11.232c4.151 0 7.515-3.365 7.515-7.515-.001-4.151-3.365-7.515-7.515-7.515z"/><path d="m471.006 378.558h-11.231c-4.151 0-7.515 3.365-7.515 7.515s3.364 7.515 7.515 7.515h11.231c4.151 0 7.515-3.365 7.515-7.515 0-4.151-3.365-7.515-7.515-7.515z"/><path d="m395.107 407.819h-11.231c-4.151 0-7.515 3.365-7.515 7.515s3.364 7.515 7.515 7.515h11.231c4.151 0 7.515-3.365 7.515-7.515-.001-4.15-3.365-7.515-7.515-7.515z"/><path d="m433.057 407.819h-11.232c-4.151 0-7.515 3.365-7.515 7.515s3.364 7.515 7.515 7.515h11.232c4.151 0 7.515-3.365 7.515-7.515-.001-4.15-3.365-7.515-7.515-7.515z"/><path d="m471.006 407.819h-11.231c-4.151 0-7.515 3.365-7.515 7.515s3.364 7.515 7.515 7.515h11.231c4.151 0 7.515-3.365 7.515-7.515s-3.365-7.515-7.515-7.515z"/><path d="m383.876 203.932h11.231c4.151 0 7.515-3.365 7.515-7.515s-3.364-7.515-7.515-7.515h-11.231c-4.151 0-7.515 3.365-7.515 7.515 0 4.151 3.364 7.515 7.515 7.515z"/><path d="m421.825 203.932h11.232c4.151 0 7.515-3.365 7.515-7.515s-3.364-7.515-7.515-7.515h-11.232c-4.151 0-7.515 3.365-7.515 7.515 0 4.151 3.364 7.515 7.515 7.515z"/><path d="m471.006 188.903h-11.231c-4.151 0-7.515 3.365-7.515 7.515s3.364 7.515 7.515 7.515h11.231c4.151 0 7.515-3.365 7.515-7.515 0-4.151-3.365-7.515-7.515-7.515z"/><path d="m383.876 233.193h11.231c4.151 0 7.515-3.364 7.515-7.515 0-4.15-3.364-7.515-7.515-7.515h-11.231c-4.151 0-7.515 3.365-7.515 7.515s3.364 7.515 7.515 7.515z"/><path d="m421.825 233.193h11.232c4.151 0 7.515-3.364 7.515-7.515 0-4.15-3.364-7.515-7.515-7.515h-11.232c-4.151 0-7.515 3.365-7.515 7.515s3.364 7.515 7.515 7.515z"/><path d="m471.006 218.163h-11.231c-4.151 0-7.515 3.365-7.515 7.515s3.364 7.515 7.515 7.515h11.231c4.151 0 7.515-3.364 7.515-7.515 0-4.15-3.365-7.515-7.515-7.515z"/><path d="m465.371 291.245c0-20.914-17.015-37.929-37.929-37.929-20.915 0-37.931 17.015-37.931 37.929 0 20.915 17.016 37.93 37.931 37.93 20.914 0 37.929-17.015 37.929-37.93zm-37.93 22.9c-12.628 0-22.901-10.273-22.901-22.901 0-12.627 10.273-22.9 22.901-22.9 12.627 0 22.9 10.273 22.9 22.9.001 12.628-10.272 22.901-22.9 22.901z"/><path d="m230.789 205.575c-3.939-1.311-8.192.823-9.501 4.763l-20.929 63.003-21.954-63.246c-1.361-3.921-5.644-5.995-9.564-4.635-3.921 1.361-5.996 5.643-4.635 9.564l27.481 79.169c1.321 3.718 4.847 6.205 8.789 6.205.021 0 .043-.001.064-.001 3.967-.027 7.491-2.568 8.785-6.375l26.227-78.947c1.308-3.937-.825-8.191-4.763-9.5z"/><path d="m149.09 212.56c0-4.15-3.365-7.515-7.515-7.515h-44.359c-4.15 0-7.515 3.365-7.515 7.515s3.365 7.515 7.515 7.515h14.575v72.809c0 4.15 3.365 7.515 7.515 7.515s7.515-3.365 7.515-7.515v-72.809h14.754c4.15-.001 7.515-3.365 7.515-7.515z"/><path d="m119.253 359.84c-4.15 0-7.515 3.365-7.515 7.515s3.364 7.515 7.515 7.515h11.231c4.15 0 7.515-3.365 7.515-7.515s-3.364-7.515-7.515-7.515z"/><path d="m149.688 367.354c0 4.15 3.365 7.515 7.515 7.515h11.231c4.15 0 7.515-3.365 7.515-7.515s-3.364-7.515-7.515-7.515h-11.231c-4.151.001-7.515 3.365-7.515 7.515z"/><path d="m195.152 359.84c-4.15 0-7.515 3.365-7.515 7.515s3.365 7.515 7.515 7.515h11.231c4.15 0 7.515-3.365 7.515-7.515s-3.365-7.515-7.515-7.515z"/><path d="m63.606 146.008c4.15 0 7.515-3.364 7.515-7.515 0-4.15-3.365-7.515-7.515-7.515h-11.231c-4.15 0-7.515 3.365-7.515 7.515s3.364 7.515 7.515 7.515z"/><path d="m278.751 146.008c4.151 0 7.515-3.364 7.515-7.515 0-4.15-3.364-7.515-7.515-7.515h-11.231c-4.151 0-7.515 3.365-7.515 7.515s3.364 7.515 7.515 7.515z"/></g></g></svg>